# xmcd
#
# Track frame offsets: 
#        150
#        29955
#        51631
#        69694
#        114015
#        162789
#
# Disc length: 2420 seconds
#
# Revision: 0
# Processed by: cddbd v1.5.1PL0 Copyright (c) Steve Scherf et al.
# Submitted via: ExactAudioCopy v0.95a5
#
DISCID=53097206
DTITLE=Van Morrison - Leeds
DYEAR=2005
DGENRE=Celtic
TTITLE0=Moondance
TTITLE1=All Work And No Play
TTITLE2=Bright Side Of The Road
TTITLE3=It's All In The Game medley
TTITLE4=And The Healing Has Begun > Backstreet
TTITLE5=Gloria
EXTD=
EXTT0=
EXTT1=
EXTT2=
EXTT3=
EXTT4=
EXTT5=
PLAYORDER=
